<svg width="21" height="21" viewBox="0 0 21 21" fill="none" xmlns="http://www.w3.org/2000/svg">
<circle cx="10.5" cy="10.5" r="9.5" fill="#34C759" stroke="#F8F8F8"/>
<path fill-rule="evenodd" clip-rule="evenodd" d="M11.9285 8.80088L8.94322 11.6033C8.80601 11.732 8.5826 11.732 8.44539 11.6033C8.30818 11.4747 8.30818 11.2652 8.44539 11.1365L11.4306 8.33408C11.5678 8.20542 11.7913 8.20542 11.9285 8.33408C11.9971 8.39841 12.0323 8.48253 12.0323 8.56665C12.0323 8.65242 11.9971 8.73655 11.9285 8.80088ZM13.0486 8.45135L12.301 7.75198C11.958 7.43033 11.4003 7.43033 11.0573 7.75198L7.85217 10.7623C7.7519 10.8546 7.67802 10.9701 7.63404 11.0971L6.9902 13.0204C6.904 13.2744 7.15907 13.5136 7.42998 13.4344L9.48464 12.829C9.61834 12.7894 9.74148 12.7202 9.84175 12.6261L13.0486 9.61587C13.3917 9.29423 13.3917 8.773 13.0486 8.45135Z" fill="white"/>
</svg>
